<?xml version="1.0" standalone="no"?><!DOCTYPE svg PUBLIC "-//W3C//DTD SVG 1.1//EN" "http://www.w3.org/Graphics/SVG/1.1/DTD/svg11.dtd"><svg width="100%" height="100%" style="background-color:#000000;" version="1.1" xmlns="http://www.w3.org/2000/svg">
<polygon points="0,0 273,0 273,311 0,311" style="fill:#000000;stroke:#000000;stroke-width:0;fill-opacity:1;"/>
<polygon points="273,36 88,66 57,181" style="fill:#a49b7c;stroke:#000000;stroke-width:0;fill-opacity:0.90;"/>
<polygon points="30,41 156,256 53,309" style="fill:#cd7b46;stroke:#000000;stroke-width:0;fill-opacity:0.16;"/>
<polygon points="151,2 42,39 196,185" style="fill:#8d6bba;stroke:#000000;stroke-width:0;fill-opacity:0.30;"/>
<polygon points="148,71 99,310 272,311" style="fill:#4a373c;stroke:#000000;stroke-width:0;fill-opacity:0.70;"/>
<polygon points="133,57 0,74 146,197" style="fill:#4b5a84;stroke:#000000;stroke-width:0;fill-opacity:0.85;"/>
<polygon points="193,7 273,25 28,270" style="fill:#e27c5b;stroke:#000000;stroke-width:0;fill-opacity:0.28;"/>
<polygon points="226,96 43,270 157,295" style="fill:#c4bf6d;stroke:#000000;stroke-width:0;fill-opacity:0.89;"/>
<polygon points="215,14 0,202 12,208" style="fill:#a0b3bd;stroke:#000000;stroke-width:0;fill-opacity:0.42;"/>
<polygon points="212,126 22,264 149,291" style="fill:#fcffaf;stroke:#000000;stroke-width:0;fill-opacity:1.00;"/>
<polygon points="182,46 273,138 136,156" style="fill:#00faf9;stroke:#000000;stroke-width:0;fill-opacity:1.00;"/>
<polygon points="33,256 94,284 141,293" style="fill:#e8e77e;stroke:#000000;stroke-width:0;fill-opacity:0.58;"/>
<polygon points="273,16 88,115 80,263" style="fill:#614e65;stroke:#000000;stroke-width:0;fill-opacity:0.82;"/>
<polygon points="0,31 255,68 1,122" style="fill:#ffee99;stroke:#000000;stroke-width:0;fill-opacity:0.35;"/>
<polygon points="87,35 216,75 69,287" style="fill:#7f5d00;stroke:#000000;stroke-width:0;fill-opacity:0.45;"/>
<polygon points="160,67 0,309 44,311" style="fill:#000725;stroke:#000000;stroke-width:0;fill-opacity:1.00;"/>
<polygon points="0,3 198,185 0,290" style="fill:#b2c57c;stroke:#000000;stroke-width:0;fill-opacity:0.61;"/>
<polygon points="94,37 45,213 199,280" style="fill:#ab9864;stroke:#000000;stroke-width:0;fill-opacity:0.13;"/>
<polygon points="132,28 80,48 43,292" style="fill:#b6d1b1;stroke:#000000;stroke-width:0;fill-opacity:0.84;"/>
<polygon points="257,20 157,311 0,311" style="fill:#cc9973;stroke:#000000;stroke-width:0;fill-opacity:0.34;"/>
<polygon points="69,80 187,148 15,311" style="fill:#3e2a3c;stroke:#000000;stroke-width:0;fill-opacity:0.61;"/>
<polygon points="129,45 15,139 187,201" style="fill:#081109;stroke:#000000;stroke-width:0;fill-opacity:0.61;"/>
<polygon points="0,78 99,92 120,159" style="fill:#d4d9ab;stroke:#000000;stroke-width:0;fill-opacity:0.42;"/>
<polygon points="13,156 32,262 95,311" style="fill:#62452b;stroke:#000000;stroke-width:0;fill-opacity:0.81;"/>
<polygon points="16,57 180,129 177,294" style="fill:#d1c44a;stroke:#000000;stroke-width:0;fill-opacity:0.12;"/>
<polygon points="221,68 52,212 145,231" style="fill:#272018;stroke:#000000;stroke-width:0;fill-opacity:0.23;"/>
<polygon points="81,0 13,197 233,311" style="fill:#fdb955;stroke:#000000;stroke-width:0;fill-opacity:0.07;"/>
<polygon points="110,99 207,164 179,295" style="fill:#bc7f09;stroke:#000000;stroke-width:0;fill-opacity:0.26;"/>
<polygon points="29,160 256,255 95,310" style="fill:#efaa24;stroke:#000000;stroke-width:0;fill-opacity:0.30;"/>
<polygon points="13,171 137,177 46,301" style="fill:#270e1e;stroke:#000000;stroke-width:0;fill-opacity:0.59;"/>
<polygon points="273,0 0,1 273,255" style="fill:#8a9660;stroke:#000000;stroke-width:0;fill-opacity:0.88;"/>
<polygon points="273,39 273,132 24,176" style="fill:#f1e8a3;stroke:#000000;stroke-width:0;fill-opacity:0.25;"/>
<polygon points="100,31 63,96 124,124" style="fill:#3d1908;stroke:#000000;stroke-width:0;fill-opacity:0.85;"/>
<polygon points="166,135 227,244 183,264" style="fill:#240007;stroke:#000000;stroke-width:0;fill-opacity:0.30;"/>
<polygon points="107,22 262,194 65,295" style="fill:#e6ab11;stroke:#000000;stroke-width:0;fill-opacity:0.09;"/>
<polygon points="100,27 40,191 230,195" style="fill:#1d000c;stroke:#000000;stroke-width:0;fill-opacity:0.99;"/>
<polygon points="56,156 17,205 70,213" style="fill:#e0fdef;stroke:#000000;stroke-width:0;fill-opacity:1.00;"/>
<polygon points="222,97 92,162 123,187" style="fill:#db9f45;stroke:#000000;stroke-width:0;fill-opacity:0.88;"/>
<polygon points="26,175 200,183 267,225" style="fill:#0f0018;stroke:#000000;stroke-width:0;fill-opacity:0.67;"/>
<polygon points="157,22 101,32 146,122" style="fill:#300000;stroke:#000000;stroke-width:0;fill-opacity:0.72;"/>
<polygon points="184,43 81,65 111,108" style="fill:#e9b164;stroke:#000000;stroke-width:0;fill-opacity:1.00;"/>
<polygon points="132,38 273,122 273,311" style="fill:#3f403d;stroke:#000000;stroke-width:0;fill-opacity:0.66;"/>
<polygon points="83,69 121,130 94,181" style="fill:#fec960;stroke:#000000;stroke-width:0;fill-opacity:0.94;"/>
<polygon points="0,204 49,246 1,311" style="fill:#885e29;stroke:#000000;stroke-width:0;fill-opacity:0.89;"/>
<polygon points="208,21 176,62 211,267" style="fill:#f7bd73;stroke:#000000;stroke-width:0;fill-opacity:0.08;"/>
<polygon points="192,99 126,121 134,164" style="fill:#ffc05f;stroke:#000000;stroke-width:0;fill-opacity:1.00;"/>
<polygon points="178,194 44,243 175,297" style="fill:#fde67f;stroke:#000000;stroke-width:0;fill-opacity:0.24;"/>
<polygon points="76,55 0,59 9,151" style="fill:#b4b36f;stroke:#000000;stroke-width:0;fill-opacity:0.39;"/>
<polygon points="0,100 137,195 0,231" style="fill:#2f2d29;stroke:#000000;stroke-width:0;fill-opacity:0.47;"/>
<polygon points="0,117 108,211 180,217" style="fill:#301600;stroke:#000000;stroke-width:0;fill-opacity:0.15;"/>
<polygon points="0,4 267,114 19,224" style="fill:#9a976a;stroke:#000000;stroke-width:0;fill-opacity:0.38;"/>
<polygon points="113,25 245,130 174,221" style="fill:#825816;stroke:#000000;stroke-width:0;fill-opacity:0.43;"/>
<polygon points="151,19 243,93 185,245" style="fill:#24131d;stroke:#000000;stroke-width:0;fill-opacity:1.00;"/>
<polygon points="146,177 50,214 175,255" style="fill:#0e2eff;stroke:#000000;stroke-width:0;fill-opacity:0.02;"/>
<polygon points="83,57 44,173 211,225" style="fill:#490f10;stroke:#000000;stroke-width:0;fill-opacity:0.35;"/>
<polygon points="4,93 124,190 30,307" style="fill:#2d1c24;stroke:#000000;stroke-width:0;fill-opacity:0.55;"/>
<polygon points="88,61 207,232 128,260" style="fill:#ecc257;stroke:#000000;stroke-width:0;fill-opacity:0.22;"/>
<polygon points="260,81 87,204 258,261" style="fill:#3a3629;stroke:#000000;stroke-width:0;fill-opacity:0.19;"/>
<polygon points="144,27 224,179 160,189" style="fill:#41231f;stroke:#000000;stroke-width:0;fill-opacity:0.56;"/>
<polygon points="193,0 262,113 222,167" style="fill:#869560;stroke:#000000;stroke-width:0;fill-opacity:0.76;"/>
<polygon points="62,154 273,241 66,287" style="fill:#960207;stroke:#000000;stroke-width:0;fill-opacity:0.04;"/>
<polygon points="0,62 77,175 27,280" style="fill:#7e944e;stroke:#000000;stroke-width:0;fill-opacity:0.25;"/>
<polygon points="97,25 188,114 85,149" style="fill:#ffd061;stroke:#000000;stroke-width:0;fill-opacity:0.40;"/>
<polygon points="31,14 175,20 154,273" style="fill:#f0bb41;stroke:#000000;stroke-width:0;fill-opacity:0.08;"/>
<polygon points="158,93 268,104 202,196" style="fill:#232633;stroke:#000000;stroke-width:0;fill-opacity:0.45;"/>
</svg>
